<?xml version="1.0" standalone="no"?>
<!DOCTYPE svg PUBLIC "-//W3C//DTD SVG 20010904//EN"
 "http://www.w3.org/TR/2001/REC-SVG-20010904/DTD/svg10.dtd">
<svg version="1.0" xmlns="http://www.w3.org/2000/svg"
 width="2048.000000pt" height="2048.000000pt" viewBox="0 0 2048.000000 2048.000000"
 preserveAspectRatio="xMidYMid meet">

<g transform="translate(0.000000,2048.000000) scale(0.100000,-0.100000)"
 fill="#F55E00" stroke="none">
<path d="M1273 20473 c4 -7 180 -542 1069 -3256 77 -236 136 -432 132 -437 -7
-5 -2277 462 -2451 505 l-23 5 0 -1008 0 -1008 1318 -268 c724 -148 1920 -392
2657 -542 737 -151 1354 -274 1370 -274 47 1 95 51 95 99 0 14 -95 313 -211
666 -116 352 -329 1000 -474 1440 -145 440 -428 1302 -630 1915 -202 613 -445
1351 -540 1640 l-174 525 -1071 3 c-589 1 -1069 -1 -1067 -5z"/>
<path d="M5235 20438 c19 -59 2064 -6307 2123 -6487 26 -80 57 -154 69 -167
30 -33 75 -32 112 4 38 36 4202 4720 4224 4752 9 13 17 36 17 50 0 23 -88 296
-471 1458 l-143 432 -147 0 -147 0 -374 -417 c-206 -230 -671 -749 -1033
-1153 -1103 -1232 -1255 -1400 -1264 -1400 -5 0 -66 174 -135 388 -140 424
-576 1749 -744 2260 l-106 322 -997 0 -998 0 14 -42z"/>
<path d="M12316 16538 c-13 -13 -107 -115 -208 -229 -381 -428 -3923 -4376
-3968 -4424 -26 -27 -52 -62 -56 -77 -5 -14 -65 -90 -134 -169 -267 -304
-4062 -4572 -4127 -4641 -43 -46 -53 -63 -53 -91 0 -58 35 -79 181 -106 68
-12 522 -97 1009 -188 487 -91 899 -168 916 -170 24 -4 39 2 66 25 19 17 333
373 698 791 366 419 670 761 677 761 7 0 45 -103 93 -252 45 -139 117 -361
160 -493 88 -270 365 -1128 375 -1162 3 -12 15 -33 26 -47 25 -32 85 -36 115
-8 60 56 1332 1539 1346 1570 10 20 18 47 18 58 0 12 -182 579 -405 1260 -223
682 -465 1419 -536 1639 -72 220 -180 550 -240 733 -60 183 -109 340 -109 348
0 12 9 14 48 8 61 -9 575 -113 2483 -503 861 -177 1588 -321 1616 -321 28 0
59 3 68 6 16 6 1331 1481 1368 1534 25 35 22 82 -7 109 -21 20 -147 46 -1037
212 -557 104 -1017 193 -1021 197 -5 5 313 372 707 816 558 630 715 813 715
833 0 15 -68 238 -151 497 -83 259 -192 597 -241 751 -49 154 -122 377 -161
495 -67 200 -74 216 -106 237 -44 30 -93 30 -125 1z"/>
<path d="M0 12498 l0 -1003 1195 -239 c657 -132 1200 -243 1207 -247 15 -10
116 105 -1241 -1409 l-1161 -1295 3 -325 2 -324 822 -169 822 -169 34 18 c20
11 207 213 438 474 222 250 561 633 754 850 193 217 800 901 1350 1520 549
619 1172 1320 1384 1558 212 238 390 444 395 457 13 32 -8 79 -42 94 -14 7
-845 178 -1847 381 -1001 203 -2011 408 -2245 455 -1483 301 -1853 375 -1861
375 -5 0 -9 -419 -9 -1002z"/>
<path d="M13426 11417 c-17 -18 -248 -272 -513 -565 -378 -417 -483 -538 -488
-564 -4 -25 19 -115 94 -363 104 -346 492 -1636 662 -2200 54 -181 102 -345
105 -363 6 -31 5 -33 -17 -28 -13 3 -105 24 -204 45 -99 22 -758 173 -1465
336 -706 162 -1305 295 -1331 295 l-46 0 -445 -477 c-244 -263 -477 -513 -516
-555 -80 -86 -92 -124 -49 -152 12 -8 346 -83 742 -166 396 -83 728 -154 738
-158 15 -6 -77 -110 -515 -581 -293 -315 -537 -580 -541 -587 -8 -15 7 -71
153 -564 43 -146 120 -404 170 -575 78 -265 95 -313 118 -332 44 -37 67 -30
137 39 147 146 3111 3302 3124 3326 21 39 85 108 1725 1866 1125 1205 1512
1625 1514 1645 2 17 -4 34 -16 44 -14 13 -237 64 -753 174 -404 85 -746 157
-760 160 -32 6 8 47 -594 -611 -406 -445 -495 -536 -495 -511 0 4 -45 155
-235 795 -40 135 -98 330 -129 434 -31 105 -64 198 -73 208 -25 28 -62 22 -97
-15z"/>
<path d="M18055 10358 c-23 -24 -598 -639 -1276 -1368 -679 -729 -1390 -1493
-1581 -1697 -192 -205 -348 -380 -348 -389 0 -23 17 -51 36 -58 16 -6 733
-170 4124 -941 789 -179 1443 -328 1453 -331 16 -5 17 35 17 734 l0 740 -22 5
c-13 3 -675 153 -1473 332 -797 179 -1459 329 -1469 333 -19 8 9 39 1738 1877
186 198 345 370 353 382 18 27 10 68 -15 82 -22 12 -1445 341 -1473 341 -11 0
-40 -19 -64 -42z"/>
<path d="M12127 4089 c-1246 -1335 -1597 -1716 -1597 -1736 0 -30 16 -85 320
-1088 131 -431 124 -415 178 -415 17 0 47 22 98 73 40 39 512 540 1049 1112
537 572 980 1041 984 1043 3 1 57 -165 119 -370 110 -368 242 -804 402 -1333
45 -148 117 -387 160 -530 43 -143 108 -359 145 -479 36 -121 70 -227 75 -236
6 -11 80 -33 252 -73 l243 -57 493 0 c465 0 493 1 488 18 -23 78 -221 735
-321 1067 -119 394 -293 974 -620 2060 -84 281 -210 699 -280 930 -374 1242
-440 1460 -472 1570 -19 66 -42 128 -51 138 -43 48 32 125 -1665 -1694z"/>
<path d="M15251 5424 c-12 -15 -21 -33 -21 -40 0 -17 7 -40 420 -1404 182
-602 376 -1241 430 -1420 54 -179 135 -446 180 -595 45 -148 103 -342 130
-430 78 -259 238 -786 347 -1145 36 -118 77 -254 91 -302 l25 -88 461 0 461 0
225 236 c124 130 230 246 237 258 10 19 -7 84 -113 436 -156 517 -343 1138
-467 1550 -264 875 -308 1023 -303 1028 4 3 675 -151 1492 -343 1025 -240
1490 -345 1502 -339 10 5 43 36 75 70 l57 61 0 655 0 656 -42 10 c-235 58
-5120 1172 -5140 1172 -17 0 -34 -10 -47 -26z"/>
</g>
</svg>
