<?xml version="1.0" standalone="no"?>
<!DOCTYPE svg PUBLIC "-//W3C//DTD SVG 20010904//EN"
 "http://www.w3.org/TR/2001/REC-SVG-20010904/DTD/svg10.dtd">
<svg version="1.0" xmlns="http://www.w3.org/2000/svg"
 width="2048.000000pt" height="2048.000000pt" viewBox="0 0 2048.000000 2048.000000"
 preserveAspectRatio="xMidYMid meet">

<g transform="translate(0.000000,2048.000000) scale(0.100000,-0.100000)"
fill="#000000" stroke="none">
<path d="M11005 18053 c-703 -11 -866 -16 -892 -28 -24 -11 -35 -24 -45 -57
-6 -24 -163 -320 -346 -658 -184 -338 -511 -939 -726 -1335 -216 -396 -525
-964 -687 -1262 -162 -298 -298 -538 -303 -533 -4 4 -502 833 -1105 1842 -604
1008 -1109 1845 -1124 1861 -33 35 -84 37 -114 5 -12 -13 -247 -432 -523 -933
-432 -786 -501 -915 -498 -945 3 -25 126 -238 439 -755 1031 -1703 2925 -4835
2956 -4887 37 -63 56 -78 101 -78 51 0 -15 -112 702 1200 164 300 362 662 440
805 78 143 262 478 408 745 145 267 343 628 438 803 96 174 253 461 349 637
96 176 253 463 349 638 95 174 252 461 348 637 97 176 240 439 320 585 281
513 682 1247 780 1425 107 197 115 225 74 272 l-24 28 -229 1 c-125 1 -615 -5
-1088 -13z"/>
<path d="M14450 18033 c-12 -16 -192 -338 -399 -718 -208 -379 -710 -1295
-1116 -2035 -1182 -2155 -1663 -3031 -2145 -3910 -249 -454 -476 -868 -506
-921 -30 -54 -54 -109 -54 -124 0 -33 25 -77 54 -95 26 -17 -311 -21 3521 45
1733 30 3584 62 4115 70 531 9 1016 18 1079 21 104 6 116 8 139 31 22 22 24
30 18 79 -6 50 -59 144 -555 987 -307 522 -559 939 -572 948 -22 15 -179 14
-2206 -19 -1200 -20 -2185 -33 -2188 -30 -4 3 165 316 375 695 211 378 677
1218 1036 1865 472 850 654 1186 654 1208 0 22 -30 80 -99 193 -55 89 -307
506 -561 927 -254 421 -471 775 -482 788 -31 32 -80 30 -108 -5z"/>
<path d="M3530 14088 c-31 -16 -18 6 -545 -998 -241 -459 -451 -856 -468 -883
-22 -35 -28 -55 -24 -76 3 -16 258 -438 566 -937 l560 -909 -37 -6 c-20 -4
-318 -9 -662 -13 -344 -3 -805 -9 -1025 -13 -399 -6 -399 -6 -422 -29 -49 -49
-51 -44 363 -710 739 -1186 728 -1167 763 -1191 43 -29 -156 -30 2194 7 1061
17 1976 29 2034 28 l105 -3 -54 -105 c-30 -58 -167 -310 -305 -560 -137 -250
-376 -684 -530 -965 -154 -280 -479 -872 -722 -1313 -243 -442 -450 -829 -461
-859 -17 -49 -18 -59 -6 -88 8 -18 204 -347 437 -731 232 -385 472 -781 532
-882 117 -194 141 -219 197 -207 15 3 35 14 43 23 8 9 128 233 267 497 444
842 733 1390 735 1393 2 3 1095 -1798 1118 -1843 8 -17 24 -39 36 -49 20 -18
45 -19 843 -12 453 3 929 9 1058 12 l235 7 39 38 c32 32 38 44 34 71 -3 30
-260 462 -1993 3358 -1083 1809 -1279 2139 -1304 2185 -11 22 -34 51 -51 65
-38 32 -68 81 -1553 2540 -846 1402 -1087 1800 -1232 2040 -485 801 -609 1009
-632 1051 -13 26 -30 53 -37 58 -22 18 -70 22 -96 9z"/>
<path d="M13450 8515 c-2137 -35 -3965 -65 -4063 -67 l-179 -3 -24 -28 c-29
-34 -31 -76 -5 -108 17 -22 211 -341 701 -1154 201 -334 497 -824 1428 -2365
327 -542 739 -1224 916 -1516 176 -293 329 -537 339 -544 13 -8 76 -11 196
-11 332 2 1956 31 1979 36 39 9 62 41 62 88 0 37 -20 76 -161 312 -89 149
-582 971 -1095 1829 -514 857 -934 1562 -934 1567 0 5 66 9 148 9 320 1 4168
69 4183 75 8 3 92 144 186 313 94 169 252 451 350 627 506 905 493 881 493
919 0 26 -7 44 -25 61 l-24 25 -293 -1 c-161 -1 -2041 -30 -4178 -64z"/>
</g>
</svg>
